<svg width="100" height="44" viewBox="0 0 100 44" fill="none" xmlns="http://www.w3.org/2000/svg">
<path d="M39.3 43.4307V21.6393H43.7773C44.9113 21.6393 45.8034 21.8704 46.4537 22.3327C47.1124 22.7949 47.5793 23.4594 47.8545 24.3261C48.1379 25.1845 48.2797 26.2163 48.2797 27.4214L48.2922 37.1037C48.2922 38.5565 48.1379 39.7492 47.8294 40.682C47.5293 41.6147 47.0415 42.3081 46.3662 42.7621C45.6908 43.2078 44.7945 43.4307 43.6773 43.4307H39.3ZM42.2015 41.1525H43.4271C43.869 41.1525 44.2317 41.0617 44.5152 40.8801C44.807 40.6902 45.0238 40.3518 45.1656 39.8648C45.3156 39.3778 45.3907 38.6762 45.3907 37.76L45.3782 27.4214C45.3782 26.1585 45.2239 25.2547 44.9154 24.7099C44.6153 24.1651 44.1067 23.8927 43.3896 23.8927H42.2015V41.1525Z" fill="white"/>
<path d="M51.5314 43.4307V21.6393H58.4475V24.0785H54.4329V31.0616H58.2349V33.476H54.4329V40.9915H58.535V43.4307H51.5314Z" fill="white"/>
<path d="M64.9509 43.6783C64.0504 43.6783 63.3084 43.5256 62.7247 43.2202C62.1494 42.9148 61.6992 42.4773 61.374 41.9077C61.0488 41.3382 60.8237 40.6572 60.6987 39.8648C60.5736 39.0724 60.5111 38.1851 60.5111 37.2028V35.1599H63.3V37.3638C63.3 38.7422 63.4042 39.7286 63.6127 40.3229C63.8295 40.9172 64.2755 41.2144 64.9509 41.2144C65.4095 41.2144 65.7513 41.1071 65.9764 40.8925C66.2015 40.6779 66.3474 40.3353 66.4141 39.8648C66.4808 39.3943 66.5142 38.7711 66.5142 37.9952C66.5142 37.0872 66.3391 36.2907 65.9889 35.6056C65.6471 34.9122 65.1426 34.223 64.4756 33.5379L62.9498 32.0273C62.5246 31.5816 62.1161 31.107 61.7242 30.6035C61.3407 30.0917 61.028 29.518 60.7862 28.8825C60.5444 28.2469 60.4235 27.5246 60.4235 26.7157C60.4235 25.6014 60.5527 24.6439 60.8112 23.8432C61.0697 23.0425 61.5158 22.4317 62.1494 22.0107C62.7914 21.5815 63.6877 21.3669 64.8383 21.3669C65.7305 21.3669 66.4517 21.5155 67.0019 21.8126C67.5522 22.1015 67.9733 22.5184 68.2651 23.0632C68.5569 23.608 68.757 24.26 68.8654 25.0194C68.9738 25.7788 69.028 26.629 69.028 27.57V28.8825H66.3016V27.3843C66.3016 26.5919 66.2641 25.9357 66.189 25.4157C66.1223 24.8874 65.9847 24.4912 65.7763 24.227C65.5679 23.9629 65.2552 23.8308 64.8383 23.8308C64.4464 23.8308 64.1296 23.9216 63.8878 24.1032C63.646 24.2848 63.4709 24.5655 63.3625 24.9452C63.2542 25.3166 63.2 25.7995 63.2 26.3938C63.2 26.9221 63.2625 27.3637 63.3876 27.7186C63.521 28.0735 63.7211 28.412 63.9879 28.7339C64.263 29.0475 64.5965 29.4107 64.9884 29.8234L66.6142 31.5445C67.4397 32.4112 68.0984 33.348 68.5903 34.3551C69.0905 35.3621 69.3407 36.5094 69.3407 37.7971C69.3407 39.0435 69.2114 40.1042 68.953 40.9791C68.6945 41.8541 68.2484 42.5227 67.6148 42.9849C66.9811 43.4472 66.0931 43.6783 64.9509 43.6783Z" fill="white"/>
<path d="M71.842 43.4307V21.6393H74.756V43.4307H71.842Z" fill="white"/>
<path d="M82.1599 43.6412C80.8675 43.6412 79.8503 43.1253 79.1083 42.0935C78.3745 41.0534 78.0077 39.353 78.0077 36.9923V27.7062C78.0077 26.7487 78.0869 25.882 78.2453 25.1061C78.4037 24.3302 78.6622 23.6657 79.0207 23.1127C79.3792 22.5597 79.8587 22.1387 80.459 21.8498C81.0676 21.5526 81.8138 21.4041 82.6976 21.4041C83.6398 21.4041 84.3944 21.5526 84.9613 21.8498C85.5366 22.1469 85.9743 22.5762 86.2745 23.1375C86.583 23.6905 86.7873 24.3632 86.8873 25.1556C86.9957 25.9398 87.0499 26.8189 87.0499 27.7929V29.4149H84.286V26.8148C84.286 25.7912 84.1817 25.0483 83.9733 24.5861C83.7649 24.1156 83.348 23.8803 82.7226 23.8803C82.0473 23.8803 81.5762 24.1569 81.3094 24.7099C81.0509 25.2547 80.9217 26.2287 80.9217 27.6319V36.918C80.9217 38.4616 81.0301 39.5677 81.2469 40.2363C81.472 40.8966 81.9389 41.2268 82.6476 41.2268C83.3313 41.2268 83.8024 40.8925 84.0608 40.2239C84.3193 39.547 84.4486 38.4203 84.4486 36.8437V33.9589H82.6976V31.8045H87.0499V43.4307H85.6242L85.2114 41.5611C84.9947 42.2297 84.6153 42.7456 84.0734 43.1088C83.5314 43.4637 82.8936 43.6412 82.1599 43.6412Z" fill="white"/>
<path d="M90.3266 43.4307V21.6393H92.5653L97.4803 35.7418L97.2302 29.5882V21.6393H99.8191V43.4307H97.718L92.8404 29.0682L93.003 34.6522V43.4307H90.3266Z" fill="white"/>
<path d="M4.57739 22.0514C3.46848 22.0514 2.57634 21.8409 1.90099 21.4199C1.23398 20.9907 0.750391 20.3427 0.450235 19.476C0.150078 18.6093 0 17.5156 0 16.1949V0H2.91402V16.133C2.91402 16.8429 2.93903 17.4579 2.98906 17.9779C3.04742 18.4979 3.19333 18.8982 3.42679 19.1789C3.66024 19.4595 4.04378 19.5998 4.57739 19.5998C5.111 19.5998 5.49036 19.4636 5.71548 19.1913C5.94894 18.9106 6.09068 18.5103 6.1407 17.9903C6.19073 17.4702 6.21574 16.8553 6.21574 16.1454V0H9.11726V16.1949C9.11726 17.5156 8.97135 18.6093 8.67953 19.476C8.38771 20.3427 7.90829 20.9907 7.24128 21.4199C6.5826 21.8409 5.69464 22.0514 4.57739 22.0514Z" fill="white"/>
<path d="M12.4565 21.7914V0H15.3705V21.7914H12.4565Z" fill="white"/>
<path d="M17.0311 43.6907C15.9221 43.6907 15.03 43.4802 14.3547 43.0592C13.6876 42.63 13.2041 41.982 12.9039 41.1153C12.6037 40.2486 12.4537 39.1549 12.4537 37.8343V21.6393H15.3677V37.7723C15.3677 38.4822 15.3927 39.0972 15.4427 39.6172C15.5011 40.1372 15.647 40.5375 15.8805 40.8182C16.1139 41.0988 16.4974 41.2392 17.0311 41.2392C17.5647 41.2392 17.944 41.103 18.1691 40.8306C18.4026 40.5499 18.5443 40.1496 18.5944 39.6296C18.6444 39.1095 18.6694 38.4946 18.6694 37.7847V21.6393H21.5709V37.8343C21.5709 39.1549 21.425 40.2486 21.1332 41.1153C20.8414 41.982 20.362 42.63 19.6949 43.0592C19.0363 43.4802 18.1483 43.6907 17.0311 43.6907Z" fill="white"/>
<path d="M23.6845 43.4307L26.9362 31.8292L23.7471 21.6393H26.2484L28.412 28.5729L30.2504 21.6393H32.9143L29.7502 32.8074L33.0894 43.4307H30.5631L28.3244 36.2494L26.4235 43.4307H23.6845Z" fill="white"/>
<path d="M23.7302 15.4521H99.8237L99.8238 12.5753H23.7302L23.7302 15.4521Z" fill="white"/>
<path d="M0.352528 43.4307H6.58371L6.58372 40.5281H0.352532L0.352528 43.4307Z" fill="white"/>
<path d="M0.352528 34.1889H6.58371L6.58372 31.2864H0.352532L0.352528 34.1889Z" fill="white"/>
</svg>
