<?xml version="1.0" standalone="no"?>
<!DOCTYPE svg PUBLIC "-//W3C//DTD SVG 20010904//EN"
 "http://www.w3.org/TR/2001/REC-SVG-20010904/DTD/svg10.dtd">
<svg version="1.0" xmlns="http://www.w3.org/2000/svg"
 width="768.000000pt" height="768.000000pt" viewBox="0 0 768.000000 768.000000"
 preserveAspectRatio="xMidYMid meet">
<metadata>
Created by potrace 1.14, written by Peter Selinger 2001-2017
</metadata>
<g transform="translate(0.000000,768.000000) scale(0.100000,-0.100000)"
fill="#000000" stroke="none">
<path d="M539 7357 c0 -6 0 -1198 -1 -2647 0 -2614 2 -2826 26 -3015 2 -16 7
-59 11 -95 4 -36 8 -67 10 -70 2 -3 6 -26 10 -50 8 -51 13 -75 15 -75 1 0 3
-9 5 -20 18 -127 111 -386 172 -482 18 -29 33 -55 33 -58 0 -24 196 -245 216
-245 7 0 14 -6 17 -14 10 -26 145 -106 267 -159 108 -47 243 -79 440 -104 113
-14 489 -6 576 12 16 3 43 7 59 9 17 2 50 9 75 16 25 7 55 14 67 16 36 7 164
54 218 81 144 72 312 217 391 338 21 33 41 62 44 65 3 3 14 23 25 45 11 22 22
42 25 45 7 6 62 145 84 211 18 53 62 231 70 279 3 19 7 44 10 55 2 11 7 43 10
70 4 28 9 62 11 76 3 14 7 57 11 95 3 38 8 89 10 114 3 25 6 1276 7 2781 l2
2736 -464 -1 -464 -1 -3 -2770 c-1 -1523 -5 -2795 -7 -2826 -3 -31 -8 -87 -11
-125 -6 -70 -11 -105 -23 -159 -4 -16 -8 -37 -9 -45 -6 -31 -58 -147 -82 -180
-77 -108 -199 -161 -372 -162 -243 -2 -373 69 -455 248 -61 133 -81 272 -90
639 -2 88 -5 1335 -5 2771 l0 2611 -465 1 c-360 1 -465 -1 -466 -11z"/>
<path d="M4162 7363 c-10 -4 -10 -8 -1 -19 6 -8 9 -14 5 -14 -3 0 0 -17 8 -37
8 -21 32 -96 54 -168 54 -172 56 -179 57 -185 3 -12 67 -217 72 -230 3 -8 7
-19 9 -25 1 -5 16 -53 32 -105 17 -52 54 -169 82 -260 28 -91 74 -236 102
-324 27 -87 51 -163 52 -170 1 -6 22 -72 46 -146 24 -74 45 -141 46 -148 1 -8
6 -21 10 -30 4 -9 8 -22 9 -28 2 -7 22 -72 45 -145 23 -74 53 -168 65 -209 13
-41 27 -86 31 -100 5 -14 8 -27 9 -30 3 -14 78 -249 87 -272 5 -15 10 -29 10
-32 0 -5 20 -69 79 -256 40 -124 69 -220 74 -245 3 -11 10 -31 17 -43 13 -25
9 -46 -77 -347 -21 -71 -39 -137 -40 -145 -2 -8 -4 -15 -5 -15 -1 0 -3 -8 -6
-17 -2 -10 -6 -26 -8 -35 -3 -10 -5 -18 -6 -18 -1 0 -3 -8 -5 -17 -2 -10 -12
-48 -23 -85 -23 -78 -72 -253 -76 -274 -2 -8 -6 -21 -9 -29 -4 -13 -14 -51
-19 -77 0 -5 -7 -22 -14 -39 -7 -17 -10 -34 -7 -38 4 -3 2 -6 -3 -6 -5 0 -10
-8 -11 -17 -1 -23 -6 -44 -33 -134 -12 -41 -23 -78 -25 -84 -1 -5 -7 -30 -14
-55 -8 -25 -14 -49 -15 -55 -2 -5 -9 -30 -16 -55 -7 -25 -14 -49 -15 -55 -2
-5 -21 -75 -45 -155 -23 -80 -43 -153 -45 -162 -5 -23 -123 -446 -135 -483 -9
-30 -148 -526 -155 -555 -2 -8 -4 -15 -5 -15 -1 0 -3 -7 -5 -15 -6 -29 -56
-215 -62 -230 -3 -8 -7 -19 -8 -25 -3 -11 -12 -44 -71 -250 -20 -71 -38 -137
-39 -145 -2 -8 -4 -15 -5 -15 -1 0 -3 -7 -5 -15 -2 -8 -8 -30 -14 -47 -5 -18
-9 -34 -8 -34 1 -1 199 -2 440 -3 381 -1 438 1 441 14 3 8 8 31 12 50 10 47
11 50 14 53 1 1 3 9 5 17 5 24 75 288 100 380 13 47 26 96 29 110 3 14 14 55
25 93 11 37 20 70 20 72 1 3 1 6 2 8 1 5 8 33 13 55 3 13 8 32 11 42 3 10 8
27 10 37 8 35 86 329 99 373 7 25 14 47 14 50 0 3 5 25 12 50 7 25 14 52 16
60 2 8 13 49 24 90 11 41 23 86 26 100 2 14 7 32 10 40 4 12 63 232 80 300 2
8 15 58 29 110 14 52 27 102 29 110 16 61 20 70 27 63 5 -5 10 -17 12 -28 2
-11 7 -27 10 -35 3 -8 20 -62 37 -120 18 -58 39 -125 47 -150 8 -25 16 -49 17
-55 1 -5 7 -26 13 -45 7 -19 35 -109 63 -200 56 -182 74 -238 100 -320 29 -90
56 -178 95 -305 20 -66 40 -127 43 -135 3 -8 6 -20 7 -26 3 -11 66 -214 92
-294 8 -25 16 -52 18 -60 8 -30 78 -255 85 -275 5 -11 23 -67 42 -125 l33
-105 402 0 c398 0 403 0 397 20 -26 86 -39 130 -62 200 -14 44 -27 82 -27 85
-1 3 -16 52 -34 110 -18 58 -34 110 -35 115 -4 19 -88 280 -112 348 -13 37
-23 69 -23 72 1 5 -32 110 -126 405 -25 80 -49 156 -51 170 -3 13 -10 30 -16
37 -6 7 -8 13 -5 13 3 0 -3 26 -14 58 -11 31 -22 64 -24 72 -2 8 -10 35 -18
60 -26 80 -69 215 -71 225 -4 20 -67 221 -76 240 -5 11 -12 34 -16 50 -4 17
-8 32 -9 35 -3 13 -89 283 -110 345 -12 39 -39 124 -59 190 -20 66 -41 129
-45 140 -18 43 -125 401 -124 415 0 8 12 53 25 100 14 47 25 87 26 90 0 3 3
12 6 20 5 15 51 178 66 235 5 17 21 73 35 125 15 52 28 100 30 105 1 6 5 17 8
25 9 23 27 85 32 109 11 49 19 79 28 101 11 29 68 235 73 265 3 17 10 35 15
41 5 6 6 14 3 17 -3 3 -2 12 2 19 5 7 9 18 11 23 3 15 80 285 92 323 5 17 8
32 5 32 -3 0 0 8 5 18 6 11 12 30 15 43 3 13 12 49 21 79 9 30 17 60 19 65 1
6 12 42 23 80 12 39 24 84 29 100 10 42 11 45 13 48 2 1 4 11 7 22 3 17 56
203 110 390 8 28 17 59 19 70 3 11 16 58 30 105 28 95 165 577 170 600 2 8 18
62 35 120 17 58 33 114 34 125 2 11 4 20 6 20 1 0 4 12 6 27 l4 26 -425 1
c-234 0 -425 -2 -425 -5 0 -9 -60 -237 -67 -254 -3 -8 -7 -25 -8 -36 -2 -12
-12 -52 -23 -90 -17 -60 -29 -104 -37 -139 -2 -5 -12 -44 -23 -85 -55 -204
-84 -316 -87 -330 -2 -8 -20 -76 -40 -150 -20 -74 -39 -143 -41 -152 -4 -18
-10 -43 -18 -75 -3 -10 -16 -58 -30 -108 -31 -116 -70 -260 -107 -405 -16 -63
-33 -122 -36 -130 -3 -8 -8 -24 -10 -34 -2 -11 -11 -47 -19 -80 -9 -34 -18
-68 -19 -76 -2 -8 -4 -16 -5 -17 -2 -2 -3 -8 -4 -15 -2 -23 -26 -20 -26 5 0
13 -3 27 -7 31 -4 3 -8 12 -9 19 -3 12 -14 50 -102 332 -28 88 -91 291 -140
450 -50 160 -97 310 -105 335 -24 70 -89 283 -92 300 -2 8 -4 16 -5 18 -2 1
-3 5 -5 10 -1 4 -4 14 -8 22 -3 8 -25 76 -47 150 -23 74 -62 200 -87 280 -25
80 -50 163 -57 185 l-12 40 -389 1 c-215 1 -396 -1 -403 -3z"/>
</g>
</svg>
